<svg xmlns="http://www.w3.org/2000/svg" width="48" height="48" viewBox="0 0 48 48">
    <g data-name="그룹 4844">
        <path data-name="패스 8927" d="M43 33H5a4 4 0 0 1-4-4V5a4 4 0 0 1 4-4h38" style="fill:none;stroke:#697278;stroke-linecap:round;stroke-linejoin:round;stroke-width:2px" transform="translate(2 7)"/>
        <path data-name="패스 8928" d="m6.675 13.261 3.076-3.076v13.333" style="fill:none;stroke:#697278;stroke-linecap:round;stroke-linejoin:round;stroke-width:2px" transform="translate(2 7)"/>
        <path data-name="패스 8929" d="M39.188 24.109V10.185l-5.788 9.2h8.669" style="fill:none;stroke:#697278;stroke-linecap:round;stroke-linejoin:round;stroke-width:2px" transform="translate(2 7)"/>
        <path data-name="패스 8930" d="M13.572 13.609a3.5 3.5 0 1 1 3.5 3.5 3.5 3.5 0 0 0-3.5 3.5v2.909h7" style="fill:none;stroke:#697278;stroke-linecap:round;stroke-linejoin:round;stroke-width:2px" transform="translate(2 7)"/>
        <path data-name="패스 8931" d="M24.036 13.109a3 3 0 1 1 3 3 4 4 0 1 1-4 4" style="fill:none;stroke:#697278;stroke-linecap:round;stroke-linejoin:round;stroke-width:2px" transform="translate(2 7)"/>
    </g>
</svg>
