<svg xmlns="http://www.w3.org/2000/svg" width="96" height="96" viewBox="0 0 96 96">
    <defs>
        <clipPath id="p5mv51ahea">
            <path data-name="패스 8919" d="M0 0h80v80H0z" style="fill:none"/>
        </clipPath>
    </defs>
    <g data-name="그룹 4630">
        <g data-name="마스크 그룹 3960" style="clip-path:url(#p5mv51ahea)" transform="translate(8 8)">
            <path data-name="패스 8927" d="M38.1 0A38.1 38.1 0 1 1 0 38.1 38.1 38.1 0 0 1 38.1 0z" transform="translate(1.905 1.905)" style="stroke:#697278;stroke-linecap:round;stroke-width:2px;fill:none"/>
            <path data-name="패스 8926" d="M5.714 0A5.714 5.714 0 1 1 0 5.714 5.714 5.714 0 0 1 5.714 0z" transform="translate(51.427 21.74)" style="stroke:#697278;stroke-linecap:round;stroke-width:2px;fill:none"/>
            <path data-name="패스 8925" d="M7.619 0A7.619 7.619 0 1 1 0 7.619 7.619 7.619 0 0 1 7.619 0z" transform="translate(15.096 43.117)" style="stroke:#697278;stroke-linecap:round;stroke-width:2px;fill:none"/>
            <path data-name="패스 8924" d="M0 75.467V0" transform="translate(40 1.905)" style="stroke:#697278;stroke-linecap:round;stroke-width:2px;fill:none"/>
            <path data-name="패스 8923" d="M0 0h11.44" transform="translate(62.856 27.454)" style="stroke:#697278;stroke-linecap:round;stroke-width:2px;fill:none"/>
            <path data-name="패스 8922" d="M0 0h47.408" transform="translate(4.021 27.454)" style="stroke:#697278;stroke-linecap:round;stroke-width:2px;fill:none"/>
            <path data-name="패스 8921" d="M0 0h46.042" transform="translate(30.334 50.736)" style="stroke:#697278;stroke-linecap:round;stroke-width:2px;fill:none"/>
            <path data-name="패스 8920" d="M0 0h10.259" transform="translate(4.021 50.736)" style="stroke:#697278;stroke-linecap:round;stroke-width:2px;fill:none"/>
            <path data-name="패스 8841" d="M38.33 17.871c1.76 15.724-3.589 31.65-15.438 42.41q-.911.826-1.891 1.642" transform="translate(19 16.169)" style="stroke-linejoin:round;stroke:#697278;stroke-linecap:round;stroke-width:2px;fill:none"/>
            <path data-name="패스 8842" d="M21 1s9.03 3.533 14.531 19.834" transform="translate(19 .905)" style="stroke-linejoin:round;stroke:#697278;stroke-linecap:round;stroke-width:2px;fill:none"/>
            <path data-name="패스 8843" d="M13.02 30.482a47.509 47.509 0 0 0 12.472 18.389q.911.826 1.89 1.642" transform="translate(11.78 27.579)" style="stroke-linejoin:round;stroke:#697278;stroke-linecap:round;stroke-width:2px;fill:none"/>
            <path data-name="패스 8844" d="M28.947 1s-11.2 4.383-16.253 25.907a52.851 52.851 0 0 0-1.3 15.307" transform="translate(10.215 .905)" style="stroke-linejoin:round;stroke:#697278;stroke-linecap:round;stroke-width:2px;fill:none"/>
        </g>
    </g>
</svg>
