<svg xmlns="http://www.w3.org/2000/svg" width="96" height="96" viewBox="0 0 96 96">
    <g data-name="그룹 4633">
        <path data-name="패스 8845" d="M70.3 69A40.555 40.555 0 0 0 41 1a40.556 40.556 0 0 0-29.443 67.845" transform="translate(7 13)" style="stroke-linejoin:round;fill:none;stroke:#697278;stroke-linecap:round;stroke-width:2px"/>
        <path data-name="패스 8936" d="M8.369 0 0 8.274" transform="translate(18.5 73.579)" style="fill:none;stroke:#697278;stroke-linecap:round;stroke-width:2px"/>
        <path data-name="패스 8935" d="m0 0 8.369 8.274" transform="translate(68.584 73.579)" style="fill:none;stroke:#697278;stroke-linecap:round;stroke-width:2px"/>
        <path data-name="패스 8934" d="M4.383 0A4.392 4.392 0 1 1 0 4.392 4.388 4.388 0 0 1 4.383 0z" transform="translate(43.165 51.704)" style="fill:none;stroke:#697278;stroke-linecap:round;stroke-width:2px"/>
        <path data-name="패스 8933" d="M9.91 0 0 9.942" transform="translate(51.331 41.843)" style="fill:none;stroke:#697278;stroke-linecap:round;stroke-width:2px"/>
        <path data-name="패스 8932" d="M0 0h9.448" transform="translate(77.647 51.918)" style="fill:none;stroke:#697278;stroke-linecap:round;stroke-width:2px"/>
        <path data-name="패스 8931" d="M0 6.159 6.25 0" transform="translate(68.584 24.572)" style="fill:none;stroke:#697278;stroke-linecap:round;stroke-width:2px"/>
        <path data-name="패스 8930" d="M10.353 0H0" transform="translate(8.146 51.918)" style="fill:none;stroke:#697278;stroke-linecap:round;stroke-width:2px"/>
        <path data-name="패스 8929" d="M6.25 6.159 0 0" transform="translate(22.229 24.57)" style="fill:none;stroke:#697278;stroke-linecap:round;stroke-width:2px"/>
        <path data-name="패스 8928" d="M0 0v7.429" transform="translate(47.054 14)" style="fill:none;stroke:#697278;stroke-linecap:round;stroke-width:2px"/>
    </g>
</svg>
