<svg xmlns="http://www.w3.org/2000/svg" width="96" height="96" viewBox="0 0 96 96">
    <g data-name="그룹 4640">
        <g data-name="그룹 4649">
            <g data-name="그룹 4651">
                <path data-name="패스 8861" d="M26.71 19.942a5.729 5.729 0 1 0-11.456 0c0 3.232 2.492 5.217 5.729 5.851 0 0 3.264.7 4.69 2.291a6.281 6.281 0 0 1 1.463 5.379 5.715 5.715 0 0 1-7.006 4.153 5.866 5.866 0 0 1-4.065-7.158" transform="translate(24.746 20.05)" style="stroke-linejoin:round;fill:none;stroke:#697278;stroke-linecap:round;stroke-width:2px"/>
                <path data-name="패스 8939" d="M0 0v2.139" transform="translate(46.001 32)" style="fill:none;stroke:#697278;stroke-linecap:round;stroke-width:2px"/>
                <path data-name="패스 8938" d="M0 0v2.139" transform="translate(46.001 57.861)" style="fill:none;stroke:#697278;stroke-linecap:round;stroke-width:2px"/>
            </g>
            <path data-name="패스 8864" d="M41.15 76.946c-.25.023-1.15.054-2.045.054a38 38 0 1 1 0-76C57.534 1 74.9 14.811 77 34.9" transform="translate(7 7)" style="stroke-linejoin:round;fill:none;stroke:#697278;stroke-linecap:round;stroke-width:2px"/>
        </g>
        <g data-name="그룹 4648">
            <g data-name="그룹 4650">
                <path data-name="패스 8862" d="M39.23 51.88a16.6 16.6 0 0 0 12-15.117V26.107l-12-4.227-12 4.227v10.656a16.6 16.6 0 0 0 12 15.117z" transform="translate(36.769 36.118)" style="stroke-linejoin:round;fill:none;stroke:#697278;stroke-linecap:round;stroke-width:2px"/>
                <path data-name="패스 8863" d="m31.918 29.484 2.546 2.989 3.726-4.1" transform="translate(40.947 42.571)" style="stroke-linejoin:round;fill:none;stroke:#697278;stroke-linecap:round;stroke-width:2px"/>
            </g>
        </g>
    </g>
</svg>
