<svg data-name="Initial cost_96" xmlns="http://www.w3.org/2000/svg" width="96" height="96" viewBox="0 0 96 96">
    <defs>
        <clipPath id="fxuopz5g1a">
            <path data-name="패스 8941" d="M0 0h80v80H0z" style="fill:none"/>
        </clipPath>
    </defs>
    <g data-name="그룹 4644">
        <g data-name="마스크 그룹 3962" style="clip-path:url(#fxuopz5g1a)" transform="translate(8 8)">
            <g data-name="그룹 4645">
                <path data-name="패스 8860" d="M39.685 28.251c0 8.836-5.372 16-12 16s-12-7.164-12-16 5.372-16 12-16 12 7.164 12 16z" transform="translate(12.317 11.747)" style="stroke-linejoin:round;stroke:#697278;stroke-linecap:round;stroke-width:2px;fill:none"/>
                <path data-name="패스 8940" d="M10 0h52a10 10 0 0 1 10 10v52a10 10 0 0 1-10 10H10A10 10 0 0 1 0 62V10A10 10 0 0 1 10 0z" style="stroke:#697278;stroke-linecap:round;stroke-width:2px;fill:none" transform="translate(3.953 3.949)"/>
            </g>
        </g>
    </g>
</svg>
