<svg xmlns="http://www.w3.org/2000/svg" width="96" height="96" viewBox="0 0 96 96">
    <defs>
        <clipPath id="r6dp818tza">
            <path data-name="사각형 3669" style="fill:#fff;stroke:#707070" d="M0 0h80v80H0z"/>
        </clipPath>
    </defs>
    <g data-name="그룹 4670">
        <path data-name="사각형 3653" style="fill:red;opacity:.001" d="M0 0h96v96H0z"/>
        <g data-name="마스크 그룹 3939" transform="translate(8 8.004)" style="clip-path:url(#r6dp818tza)">
            <g data-name="그룹 4653">
                <path data-name="패스 8865" d="M8.348 80.606h33.517S69.471 30.707 26.064 0c0 0-43.94 27.911-17.716 80.606z" transform="rotate(45 46.94 62.14)" style="stroke-linejoin:round;fill:none;stroke:#697278;stroke-linecap:round;stroke-width:2px"/>
                <path data-name="패스 8918" d="M8.246 0A8.246 8.246 0 1 1 0 8.246 8.246 8.246 0 0 1 8.246 0z" transform="rotate(45 -5.08 64.13)" style="fill:none;stroke:#697278;stroke-linecap:round;stroke-width:2px"/>
                <path data-name="패스 8917" d="M0 0h28.584" transform="rotate(45 23.916 68.612)" style="fill:none;stroke:#697278;stroke-linecap:round;stroke-width:2px"/>
                <path data-name="패스 8866" d="M0 0s-.073 11.814 8.291 17.13c0 0 9.373-5.948 9.084-17.13z" transform="rotate(45 -58.639 41.418)" style="stroke-linejoin:round;fill:none;stroke:#697278;stroke-linecap:round;stroke-width:2px"/>
                <path data-name="패스 8867" d="M7.691 0S-3.929 6.455 1.4 26.321l9.238-8.821" transform="rotate(49.98 2.734 27.649)" style="stroke-linejoin:round;fill:none;stroke:#697278;stroke-linecap:round;stroke-width:2px"/>
                <path data-name="패스 8868" d="M2.161 0s13.011 7.454 7.684 27.32L0 17.923" transform="rotate(45 -26.837 101.652)" style="stroke-linejoin:round;fill:none;stroke:#697278;stroke-linecap:round;stroke-width:2px"/>
            </g>
        </g>
    </g>
</svg>
