<svg xmlns="http://www.w3.org/2000/svg" width="48" height="48" viewBox="0 0 48 48">
    <path data-name="사각형 3761" style="fill:none" d="M0 0h48v48H0z"/>
    <g data-name="그룹 4857">
        <path data-name="패스 8950" d="M35.268 39.182a3 3 0 0 1-3 3H9.657a3.013 3.013 0 0 1-2.121-.88l-2.829-2.83-2.828-2.83A2.984 2.984 0 0 1 1 33.522V7.182a3 3 0 0 1 3-3h28.268a3 3 0 0 1 3 3z" transform="translate(6 3)" style="stroke:#697278;stroke-width:2px;fill:none"/>
        <path data-name="패스 8951" d="M2 33.442h6.992a.874.874 0 0 1 .874.874v7.866" transform="translate(6 3)" style="stroke:#697278;stroke-width:2px;fill:none"/>
        <path data-name="패스 8952" d="M6.382 6.6v.8a1.6 1.6 0 1 0 3.2 0V2.6a1.6 1.6 0 0 0-1.6-1.6h-.8a1.6 1.6 0 0 0-1.6 1.6v1.016" transform="translate(6 3)" style="stroke-miterlimit:10;stroke:#697278;stroke-width:2px;fill:none"/>
        <path data-name="선 847" transform="translate(14.748 17.847)" style="stroke:#697278;stroke-width:2px;fill:none" d="M0 0h18.377"/>
        <path data-name="선 848" transform="translate(14.748 26.811)" style="stroke:#697278;stroke-width:2px;fill:none" d="M0 0h13.365"/>
    </g>
</svg>
