<svg xmlns="http://www.w3.org/2000/svg" width="48" height="48" viewBox="0 0 48 48">
    <defs>
        <clipPath id="9jym9vreha">
            <path data-name="사각형 3660" style="fill:none" d="M0 0h18v18H0z"/>
        </clipPath>
    </defs>
    <g data-name="그룹 4634">
        <path data-name="패스 7684" d="M.75 40.75V3.967A3.3 3.3 0 0 1 4.117.75h29.258a3.3 3.3 0 0 1 3.375 3.209V40.75l-7.6-3.088-5.029 3.088-5.342-3.088-5.414 3.088-5.195-3.088z" transform="translate(5.25 3.25)" style="stroke:#697278;stroke-width:2px;fill:none"/>
    </g>
    <g data-name="그룹 4636">
        <g data-name="그룹 4635" transform="translate(15 15)" style="clip-path:url(#9jym9vreha)">
            <path data-name="패스 8848" d="M13.263 0 0 12.963" transform="translate(2.529 2.485)" style="stroke-linecap:round;stroke:#697278;stroke-width:2px;fill:none"/>
            <path data-name="패스 8846" d="M6.585 3.973a2.792 2.792 0 1 1-2.792-2.792 2.792 2.792 0 0 1 2.792 2.792z" transform="translate(.018 .021)" style="stroke-linejoin:round;stroke-linecap:round;stroke:#697278;stroke-width:2px;fill:none"/>
            <path data-name="패스 8847" d="M16.783 13.99a2.792 2.792 0 1 1-2.792-2.79 2.792 2.792 0 0 1 2.792 2.79z" transform="translate(.199 .2)" style="stroke-linejoin:round;stroke-linecap:round;stroke:#697278;stroke-width:2px;fill:none"/>
        </g>
    </g>
</svg>
