<svg data-name="Build &amp; Order_48" xmlns="http://www.w3.org/2000/svg" width="48" height="48" viewBox="0 0 48 48">
    <g data-name="그룹 936">
        <path data-name="패스 2288" d="M147.068 1169.887h-26.991a1.184 1.184 0 0 0-1.148.887l-1.631 6.314-1.745 7.094a5.638 5.638 0 0 0-.165 1.357v12.927h-2.138v-12.927a7.792 7.792 0 0 1 .227-1.87l1.749-7.1 1.633-6.325a3.325 3.325 0 0 1 3.218-2.489h26.991a3.325 3.325 0 0 1 3.218 2.489l1.61 6.239 2.916 6.485a7.776 7.776 0 0 1 .688 3.2v12.3h-2.14v-12.3a5.66 5.66 0 0 0-.5-2.329l-2.991-6.656-1.656-6.41a1.182 1.182 0 0 0-1.145-.886zm-25.8 22.648h24.6v5.929h-2.139v-3.792h-20.318v3.792h-2.139z" transform="translate(-110 -1159)" style="fill:#697278;fill-rule:evenodd"/>
        <path data-name="패스 2289" d="M140.5 1187h-15v-2h15z" transform="translate(-108.584 -1157.733)" style="fill:#697278;fill-rule:evenodd"/>
        <path data-name="패스 2290" d="M122.5 1187H118v-2h4.5z" transform="translate(-110 -1157.733)" style="fill:#697278;fill-rule:evenodd"/>
        <path data-name="패스 2291" d="M147.928 1187H143.5v-2h4.428z" transform="translate(-107.25 -1157.733)" style="fill:#697278;fill-rule:evenodd"/>
        <path data-name="패스 2292" d="M133.127 1177.5a90.106 90.106 0 0 0 20.267-2.21 1.077 1.077 0 0 1 1.317.69.987.987 0 0 1-.747 1.23 91.779 91.779 0 0 1-20.837 2.29 81.836 81.836 0 0 1-19.843-2.29.987.987 0 0 1-.746-1.23 1.075 1.075 0 0 1 1.316-.69 80.383 80.383 0 0 0 19.273 2.21z" transform="translate(-110 -1158.399)" style="fill:#697278;fill-rule:evenodd"/>
    </g>
</svg>
