<svg xmlns="http://www.w3.org/2000/svg" width="48" height="48" viewBox="0 0 48 48">
    <g data-name="그룹 942">
        <path data-name="패스 2316" d="m1050.26 1165.11-15.57 5.11a1.009 1.009 0 0 0-.69.95v16.66a3.991 3.991 0 0 0 1.67 3.25l14.58 10.45 14.13-10.43a3.993 3.993 0 0 0 1.62-3.21v-16.74a1 1 0 0 0-.68-.95zm.01 38.89-15.76-11.29a6 6 0 0 1-2.51-4.88v-16.66a3.009 3.009 0 0 1 2.06-2.85l16.21-5.32 15.69 5.31a3 3 0 0 1 2.04 2.84v16.74a5.973 5.973 0 0 1-2.44 4.82z" transform="translate(-1026 -1159)" style="fill:#697278;fill-rule:evenodd"/>
        <path data-name="패스 2317" d="m1042 1182.5 4.02 4.02a2 2 0 0 0 2.89-.06l9.59-10.46" transform="translate(-1026 -1159)" style="fill:none;stroke:#697278;stroke-width:2px"/>
    </g>
</svg>
