<svg xmlns="http://www.w3.org/2000/svg" width="48" height="48" viewBox="0 0 48 48">
    <path data-name="패스 7668" d="m15.078 34.489 5.056-1.221 13.937-13.879a1.491 1.491 0 0 0 0-2.113l-1.763-1.756h0l-1.758-1.75a1.506 1.506 0 0 0-2.121 0L14.492 27.649l-1.224 5.037a1.5 1.5 0 0 0 1.81 1.803z" transform="translate(9.49 9.468)" style="stroke-linecap:round;stroke-linejoin:round;fill:none;stroke:#697278;stroke-width:2px"/>
    <path data-name="패스 7669" d="M11.867 39.783H3.843A3.085 3.085 0 0 1 .75 36.708V3.831A3.085 3.085 0 0 1 3.837.75h26.825a3.083 3.083 0 0 1 3.095 3.073v8.058" transform="translate(3.25 3.25)" style="fill:none;stroke:#697278;stroke-width:2px"/>
    <path data-name="패스 9099" d="M0 0h16.5" transform="translate(10.158 14.553)" style="fill:none;stroke:#697278;stroke-width:2px"/>
    <path data-name="패스 9098" d="M0 0h12" transform="translate(10.158 23.517)" style="fill:none;stroke:#697278;stroke-width:2px"/>
    <path data-name="패스 9097" d="M0 0h6" transform="translate(10.158 32.482)" style="fill:none;stroke:#697278;stroke-width:2px"/>
</svg>
