<svg xmlns="http://www.w3.org/2000/svg" width="32" height="32" viewBox="0 0 32 32">
    <g data-name="그룹 3952">
        <g data-name="그룹 3960">
            <path data-name="패스 2330" d="M853 1165.895a1.884 1.884 0 0 1 1.875-1.895h12.714a1.87 1.87 0 0 1 1.326.556l1.768 1.787 1.768 1.788a1.894 1.894 0 0 1 .549 1.339v16.636a1.884 1.884 0 0 1-1.875 1.895h-16.25a1.884 1.884 0 0 1-1.875-1.895z" transform="translate(-847 -1160)" style="fill:none;stroke:#697278;stroke-width:1.5px"/>
            <path data-name="패스 2331" d="M879.815 1169.5h-4.28a.543.543 0 0 1-.535-.55V1164" transform="translate(-854.441 -1160)" style="fill:none;stroke:#697278;stroke-width:1.5px"/>
            <path data-name="선 192" transform="translate(9.636 22.374)" style="fill:none;stroke:#697278;stroke-width:1.5px" d="M0 0h7.273"/>
            <path data-name="선 193" transform="translate(9.636 16.861)" style="fill:none;stroke:#697278;stroke-width:1.5px" d="M0 0h7.273"/>
        </g>
    </g>
</svg>
