<svg xmlns="http://www.w3.org/2000/svg" width="32" height="32" viewBox="0 0 32 32">
    <path data-name="패스 440" d="M1159.66 882.353a10 10 0 0 0-2.99 7.542c0 2.927 1.79 6.1 4.01 8.888a45.348 45.348 0 0 0 5.95 6.057.567.567 0 0 0 .74 0 45.348 45.348 0 0 0 5.95-6.057c2.22-2.784 4.01-5.961 4.01-8.888 0-6.234-4.56-10.228-10.33-10.228a10.588 10.588 0 0 0-7.34 2.686zm-.91-.973a11.912 11.912 0 0 1 8.25-3.047c6.45 0 11.67 4.533 11.67 11.562 0 3.4-2.05 6.89-4.3 9.718a47.374 47.374 0 0 1-6.14 6.246 1.9 1.9 0 0 1-2.46 0 47.374 47.374 0 0 1-6.14-6.246c-2.25-2.828-4.3-6.313-4.3-9.718a11.348 11.348 0 0 1 3.42-8.515z" transform="translate(-1151 -876)" style="fill:#697278;fill-rule:evenodd"/>
    <path data-name="패스 441" d="M1167 886.667a3.333 3.333 0 1 0 3.33 3.333 3.331 3.331 0 0 0-3.33-3.333zm-4.67 3.333a4.67 4.67 0 1 1 4.67 4.667 4.668 4.668 0 0 1-4.67-4.667z" transform="translate(-1151.33 -876)" style="fill:#697278;fill-rule:evenodd"/>
</svg>
